<?xml version="1.0" standalone="no"?><!DOCTYPE svg PUBLIC "-//W3C//DTD SVG 1.1//EN" "http://www.w3.org/Graphics/SVG/1.1/DTD/svg11.dtd"><svg t="1593847897108" class="icon" viewBox="0 0 1024 1024" version="1.1" xmlns="http://www.w3.org/2000/svg" p-id="838" xmlns:xlink="http://www.w3.org/1999/xlink" width="200" height="200"><defs><style type="text/css"></style></defs><path d="M512 0c282.779826 0 512 229.220174 512 512S794.779826 1024 512 1024 0 794.779826 0 512 229.220174 0 512 0z m193.78087 766.263652a37.754435 37.754435 0 1 0-0.044522 75.50887 37.754435 37.754435 0 0 0 0.044522-75.50887z m-299.297392 0a37.754435 37.754435 0 1 0-0.044521 75.50887 37.754435 37.754435 0 0 0 0.044521-75.50887zM249.344 243.97913l-43.831652-0.26713a23.240348 23.240348 0 0 0-2.671305 46.302609l2.53774 0.155826 40.648347 0.222608c7.92487 3.205565 15.916522 11.753739 19.723131 28.16l0.111304 1.380174 46.08 346.067479c4.85287 32.678957 16.272696 55.607652 32.122435 70.344347 9.015652 8.370087 17.986783 12.933565 25.33287 14.870261l3.806608 0.801392 15.983305 1.691826 345.132521-1.224348a23.240348 23.240348 0 0 0 2.448696-46.302609l-2.537739-0.155826-342.594783 1.26887-10.796521-1.179826c-8.392348-3.650783-17.385739-15.983304-22.038261-41.761392l-0.823653-5.008695-43.965217-330.039653-0.022261-1.469217c-2.226087-30.764522-13.512348-52.758261-30.052174-67.383652-10.752-9.48313-21.659826-14.291478-30.096695-16.005565l-2.226087-0.333913-2.270609-0.133566-43.831652-0.26713 43.853913 0.26713z m497.040696 53.426087l-4.006957-0.333913-361.293913 1.113044a23.240348 23.240348 0 0 0-2.381913 46.324869l2.537739 0.133566 359.045565-1.157566c3.940174 0.712348 8.548174 2.715826 11.130435 6.344348 2.114783 2.982957 3.072 7.724522 2.738087 13.890783l-0.311652 1.246609-1.625044 10.907826-0.645565 2.381913c-0.445217 1.669565-0.734609 3.361391-0.823652 5.075478l0.022261 2.537739-25.6 172.054261-0.400696 1.625043-0.26713 1.825392c-2.381913 22.505739-9.527652 32.233739-16.873739 34.615652l-1.469218 0.378435-279.240347 25.043478a23.240348 23.240348 0 0 0 2.048 46.369391l2.114782-0.089043 279.730087-25.110261c8.681739-0.77913 19.366957-4.452174 29.829565-12.822261a73.906087 73.906087 0 0 0 20.791652-27.514435l2.203827-5.231304c1.491478-1.78087 12.109913-67.762087 34.304-212.546783 5.676522-24.598261 2.82713-45.345391-8.548174-61.44a61.261913 61.261913 0 0 0-43.008-25.6z" fill="#3cddee" p-id="839"></path></svg>