<?xml version="1.0" standalone="no"?><!DOCTYPE svg PUBLIC "-//W3C//DTD SVG 1.1//EN" "http://www.w3.org/Graphics/SVG/1.1/DTD/svg11.dtd"><svg t="1593449331063" class="icon" viewBox="0 0 1024 1024" version="1.1" xmlns="http://www.w3.org/2000/svg" p-id="5683" xmlns:xlink="http://www.w3.org/1999/xlink" width="200" height="200"><defs><style type="text/css"></style></defs><path d="M511.706311 64.020082c-246.87876 0-447.725114 200.857611-447.725114 447.725114s200.846354 447.725114 447.725114 447.725114 447.725114-200.857611 447.725114-447.725114S758.585071 64.020082 511.706311 64.020082zM511.706311 890.588501c-208.895681 0-378.844328-169.959903-378.844328-378.844328S302.81063 132.900869 511.706311 132.900869 890.549615 302.860772 890.549615 511.745197 720.601992 890.588501 511.706311 890.588501z" p-id="5684"></path><path d="M465.785445 259.181971c0-19.014052 15.415085-34.440393 34.440393-34.440393 19.025309 0 34.440393 15.426341 34.440393 34.440393L534.666232 488.785276l160.721495 0c19.025309 0 34.440393 15.426341 34.440393 34.440393s-15.415085 34.440393-34.440393 34.440393L510.271636 557.666062c-24.568559 0-44.485167-19.916609-44.485167-44.485167L465.786469 259.181971z" p-id="5685"></path></svg>