<?xml version="1.0" standalone="no"?><!DOCTYPE svg PUBLIC "-//W3C//DTD SVG 1.1//EN" "http://www.w3.org/Graphics/SVG/1.1/DTD/svg11.dtd"><svg t="1608109793854" class="icon" viewBox="0 0 1027 1024" version="1.1" xmlns="http://www.w3.org/2000/svg" p-id="1234" xmlns:xlink="http://www.w3.org/1999/xlink" width="200.5859375" height="200"><defs><style type="text/css"></style></defs><path d="M453.996176 314.248566a171.319312 171.319312 0 1 1 241.804971 240.33652l-8.810707 8.810707 37.690248 37.445507 9.544933-8.565965a223.694073 223.694073 0 0 0-318.164436-315.717018l-8.565965 8.810708 37.445507 37.445507z" p-id="1235"></path><path d="M627.028681 498.049713l37.445506 37.445507 8.810708-8.565966a135.097514 135.097514 0 0 0 0-190.653919 135.586998 135.586998 0 0 0-191.143404 0l-8.810707 8.810707 37.690249 37.445507 8.565965-8.565966a84.191205 84.191205 0 0 1 116.007648 0A81.254302 81.254302 0 0 1 636.328872 489.483748zM804.711281 720.520076c-10.034417-7.097514-122.370937-81.499044-135.097514-90.309751a66.080306 66.080306 0 0 0-65.346081 2.936903c-9.544933 4.894837-35.487572 19.824092-52.374761 29.613766a832.122371 832.122371 0 0 1-90.309751-81.254302A810.829828 810.829828 0 0 1 381.063098 489.483748c9.789675-17.131931 24.474187-43.319312 29.369024-52.619503a67.304015 67.304015 0 0 0 2.692161-66.325048c-8.565966-13.460803-81.743786-125.307839-89.575526-136.076482a60.695985 60.695985 0 0 0-83.456979-7.83174s-103.525813 73.422562-102.057361 122.370937c3.671128 117.720841 115.028681 254.286807 208.030593 347.778203s228.099426 206.3174 346.554493 209.988527c47.479924 0 119.434034-102.302103 120.16826-103.28107a60.206501 60.206501 0 0 0-8.076482-82.967496zM359.525813 410.676864c-6.852772 13.216061-35.977055 64.367113-37.200765 66.814532l-8.321224 14.43977 8.565966 14.439771a682.829828 682.829828 0 0 0 97.896749 116.007648 703.388145 703.388145 0 0 0 114.783939 99.365201l14.439771 8.565965 15.908221-9.300191c8.321224-4.650096 52.619503-30.347992 64.856597-36.711281a28.390057 28.390057 0 0 1 10.5239-3.671128c18.110899 11.502868 109.399618 73.422562 126.776291 84.680688a12.481836 12.481836 0 0 1-2.69216 6.363289 358.302103 358.302103 0 0 1-73.422563 78.3174c-97.89675-3.91587-220.267686-106.952199-304.948374-192.856597S198.48566 447.143403 195.793499 350.470363a333.827916 333.827916 0 0 1 77.827916-75.869981 14.195029 14.195029 0 0 1 6.118547-2.69216c13.460803 19.824092 73.422562 109.889101 83.946462 128a31.571702 31.571702 0 0 1-4.160611 10.768642z" p-id="1236"></path></svg>