<?xml version="1.0" standalone="no"?><!DOCTYPE svg PUBLIC "-//W3C//DTD SVG 1.1//EN" "http://www.w3.org/Graphics/SVG/1.1/DTD/svg11.dtd"><svg t="1593449342379" class="icon" viewBox="0 0 1024 1024" version="1.1" xmlns="http://www.w3.org/2000/svg" p-id="5928" xmlns:xlink="http://www.w3.org/1999/xlink" width="200" height="200"><defs><style type="text/css"></style></defs><path d="M815.312593 896.948148h-606.814815c-31.383704 0-56.888889-25.505185-56.888889-56.888889V185.837037c0-31.383704 25.505185-56.888889 56.888889-56.888889h606.814815c31.383704 0 56.888889 25.505185 56.888888 56.888889v654.222222c0 31.383704-25.505185 56.888889-56.888888 56.888889z m-606.814815-730.074074c-10.42963 0-18.962963 8.533333-18.962963 18.962963v654.222222c0 10.42963 8.533333 18.962963 18.962963 18.962963h606.814815c10.42963 0 18.962963-8.533333 18.962963-18.962963V185.837037c0-10.42963-8.533333-18.962963-18.962963-18.962963h-606.814815z" p-id="5929"></path><path d="M267.377778 332.8a36.02963 35.934815 90 1 0 71.869629 0 36.02963 35.934815 90 1 0-71.869629 0Z" p-id="5930"></path><path d="M733.297778 351.762963H412.539259c-10.42963 0-18.962963-8.533333-18.962963-18.962963s8.533333-18.962963 18.962963-18.962963h320.758519c10.42963 0 18.962963 8.533333 18.962963 18.962963s-8.533333 18.962963-18.962963 18.962963z" p-id="5931"></path><path d="M267.093333 512.948148a36.02963 35.934815 90 1 0 71.86963 0 36.02963 35.934815 90 1 0-71.86963 0Z" p-id="5932"></path><path d="M733.013333 531.911111H412.254815c-10.42963 0-18.962963-8.533333-18.962963-18.962963s8.533333-18.962963 18.962963-18.962963h320.758518c10.42963 0 18.962963 8.533333 18.962963 18.962963s-8.533333 18.962963-18.962963 18.962963z" p-id="5933"></path><path d="M267.093333 693.475556a36.02963 35.934815 90 1 0 71.86963 0 36.02963 35.934815 90 1 0-71.86963 0Z" p-id="5934"></path><path d="M733.013333 712.438519H412.254815c-10.42963 0-18.962963-8.533333-18.962963-18.962963s8.533333-18.962963 18.962963-18.962963h320.758518c10.42963 0 18.962963 8.533333 18.962963 18.962963s-8.533333 18.962963-18.962963 18.962963z" p-id="5935"></path></svg>