<?xml version="1.0" standalone="no"?><!DOCTYPE svg PUBLIC "-//W3C//DTD SVG 1.1//EN" "http://www.w3.org/Graphics/SVG/1.1/DTD/svg11.dtd"><svg t="1594202295881" class="icon" viewBox="0 0 1024 1024" version="1.1" xmlns="http://www.w3.org/2000/svg" p-id="3626" xmlns:xlink="http://www.w3.org/1999/xlink" width="200" height="200"><defs><style type="text/css"></style></defs><path d="M0 0m128 0l768 0q128 0 128 128l0 768q0 128-128 128l-768 0q-128 0-128-128l0-768q0-128 128-128Z" fill="#4B9FFE" p-id="3627"></path><path d="M619.392 592c53.44-100 72.512-196 72.512-196h-177.408V328h209.824v-30.016h-209.824V192h-95.392v106.016H228.352v30.016h190.752v69.984H255.072v29.984h329.984c0 6.016 0 6.016-5.696 9.984 0 36.032-24.8 86.016-43.904 126.016-244.16-100-314.752-40-333.824-29.984-162.176 120-9.504 270.016 15.296 265.984 171.648 40 282.304-35.968 358.592-130.016 5.76 6.048 9.568 6.048 15.264 6.048C644.224 706.016 896 832 896 832v-149.984c-38.144-4-177.408-54.016-276.608-90.016zM502.4 637.28c-120.96 168.8-264.896 116.064-287.936 105.504-57.6-16.896-76.8-132.928-5.76-168.8 120.96-42.208 226.56 6.336 303.296 48.512-5.76 8.448-9.568 14.784-9.568 14.784z" fill="#FFFFFF" p-id="3628"></path></svg>