<?xml version="1.0" standalone="no"?><!DOCTYPE svg PUBLIC "-//W3C//DTD SVG 1.1//EN" "http://www.w3.org/Graphics/SVG/1.1/DTD/svg11.dtd"><svg t="1593695453274" class="icon" viewBox="0 0 1024 1024" version="1.1" xmlns="http://www.w3.org/2000/svg" p-id="6555" xmlns:xlink="http://www.w3.org/1999/xlink" width="200" height="200"><defs><style type="text/css"></style></defs><path d="M468.712727 676.421818a28.974545 28.974545 0 0 1-20.48-8.494545L264.145455 485.003636a29.090909 29.090909 0 1 1 40.96-41.309091l163.607272 162.909091 261.585455-260.421818a29.090909 29.090909 0 1 1 40.96 41.309091L488.727273 667.927273a28.974545 28.974545 0 0 1-20.014546 8.494545z" fill="#1296db" p-id="6556"></path><path d="M512 1000.727273a488.727273 488.727273 0 1 1 488.727273-488.727273 488.727273 488.727273 0 0 1-488.727273 488.727273z m0-919.272728a430.545455 430.545455 0 1 0 430.545455 430.545455A430.545455 430.545455 0 0 0 512 81.454545z" fill="#1296db" p-id="6557"></path></svg>